<svg xmlns="http://www.w3.org/2000/svg" version="1.1" xmlns:xlink="http://www.w3.org/1999/xlink" xmlns:svgjs="http://svgjs.dev/svgjs" width="1500" height="1500" viewBox="0 0 1500 1500"><rect width="1500" height="1500" fill="#ffffff"></rect><g transform="matrix(0.6666666666666666,0,0,0.6666666666666666,249.39393939393938,669.8982195922885)"><svg viewBox="0 0 396 63" data-background-color="#ffffff" preserveAspectRatio="xMidYMid meet" height="238" width="1500" xmlns="http://www.w3.org/2000/svg" xmlns:xlink="http://www.w3.org/1999/xlink"><g id="tight-bounds" transform="matrix(1,0,0,1,0.2400000000000091,0.3051186912971957)"><svg viewBox="0 0 395.52 62.389762617405616" height="62.389762617405616" width="395.52"><g><svg viewBox="0 0 483.76529856852824 76.30967369596691" height="62.389762617405616" width="395.52"><g><rect width="6.847447886055274" height="76.30967369596691" x="63.47259443625495" y="0" fill="#6575a8" opacity="1" stroke-width="0" stroke="transparent" fill-opacity="1" class="rect-yte-0" data-fill-palette-color="primary" rx="1%" id="yte-0" data-palette-color="#6575a8"></rect></g><g transform="matrix(1,0,0,1,88.24529856852823,0.18982505894518908)"><svg viewBox="0 0 395.52 75.93002357807653" height="75.93002357807653" width="395.52"><g id="textblocktransform"><svg viewBox="0 0 395.52 75.93002357807653" height="75.93002357807653" width="395.52" id="textblock"><g><svg viewBox="0 0 395.52 75.93002357807653" height="75.93002357807653" width="395.52"><g transform="matrix(1,0,0,1,0,0)"><svg width="395.52" viewBox="2.4 -36.41 241.73 46.410000000000004" height="75.93002357807653" data-palette-color="#6575a8"><path d="M34.8 10L34.8 10Q32.25 10 30.43 9.2 28.6 8.4 27.05 7.15 25.5 5.9 23.85 4.55 22.2 3.2 20.05 2.1L20.05 2.1Q18.45 1.3 16.25 0.8L16.25 0.8Q14.1 0.3 12.05-0.43 10-1.15 8.6-2.25L8.6-2.25Q5.65-4.55 4.03-8 2.4-11.45 2.4-15.35L2.4-15.35Q2.4-19.5 3.83-22.7 5.25-25.9 7.6-28.1 9.95-30.3 12.78-31.43 15.6-32.55 18.35-32.55L18.35-32.55Q22.1-32.55 25.08-31.2 28.05-29.85 30.18-27.55 32.3-25.25 33.4-22.33 34.5-19.4 34.5-16.25L34.5-16.25Q34.5-12.45 33.18-9.3 31.85-6.15 29.53-3.9 27.2-1.65 24.2-0.45L24.2-0.45Q23.95-0.35 23.48-0.23 23-0.1 22.15-0.05L22.15-0.05 22.15 0.05Q23.5 0.2 24.6 0.75L24.6 0.75Q27.05 1.95 29.13 3.55 31.2 5.15 33.08 6.33 34.95 7.5 36.75 7.5L36.75 7.5Q37.7 7.4 38.1 6.9 38.5 6.4 38.5 5.75L38.5 5.75Q38.5 4.6 37.63 3.55 36.75 2.5 35.2 2.45L35.2 2.45Q35.05 1.75 35.75 0.95 36.45 0.15 38.05 0.15L38.05 0.15Q38.6 0.15 39.45 0.55 40.3 0.95 40.95 1.83 41.6 2.7 41.6 4.15L41.6 4.15Q41.6 5.7 40.58 7 39.55 8.3 37.98 9.13 36.4 9.95 34.8 10ZM18.3-1.05L18.3-1.05Q20.95-1.05 22.9-2.27 24.85-3.5 26.1-5.65 27.35-7.8 27.95-10.53 28.55-13.25 28.55-16.25L28.55-16.25Q28.55-20 27.43-23.23 26.3-26.45 24.03-28.43 21.75-30.4 18.3-30.4L18.3-30.4Q14.8-30.4 12.58-28.33 10.35-26.25 9.33-22.88 8.3-19.5 8.3-15.5L8.3-15.5Q8.3-11.75 9.38-8.45 10.45-5.15 12.68-3.1 14.9-1.05 18.3-1.05ZM48.85 0.6L48.85 0.6Q45.45 0.6 43.45-1.45 41.45-3.5 41.45-6.85L41.45-6.85 41.45-16.1Q41.45-17 41.37-17.78 41.3-18.55 40.8-19.03 40.3-19.5 38.9-19.5L38.9-19.5Q38.45-19.5 38.07-19.63 37.7-19.75 37.7-20.5L37.7-20.5Q37.7-21.25 38.5-21.4L38.5-21.4Q40.8-21.75 42.02-22.1 43.25-22.45 43.9-22.7 44.55-22.95 45.05-23L45.05-23Q45.45-23.05 45.72-22.85 46-22.65 46-22.05L46-22.05 46-6.9Q46-5.25 46.72-4.2 47.45-3.15 48.55-2.65 49.65-2.15 50.8-2.15L50.8-2.15Q52.55-2.15 53.85-2.78 55.15-3.4 55.95-4.23 56.75-5.05 57-5.6L57-5.6 57-16.1Q57-17 56.92-17.78 56.85-18.55 56.35-19.03 55.85-19.5 54.45-19.5L54.45-19.5Q54-19.5 53.62-19.63 53.25-19.75 53.25-20.5L53.25-20.5Q53.25-21.25 54.05-21.4L54.05-21.4Q56.35-21.75 57.57-22.1 58.8-22.45 59.45-22.7 60.1-22.95 60.6-23L60.6-23Q61-23.05 61.27-22.85 61.55-22.65 61.55-22.05L61.55-22.05 61.55-4.75Q61.55-1.8 65.5-1.8L65.5-1.8Q66.05-1.8 66.2-1.5 66.35-1.2 66.35-0.85L66.35-0.85Q66.35-0.15 65.5 0L65.5 0 57.45 0.55Q57.1 0.55 57.05 0.25 57-0.05 57-0.45L57-0.45 57-3.25 56.9-3.25Q55.95-2.35 54.87-1.45 53.8-0.55 52.37 0.03 50.95 0.6 48.85 0.6ZM69.1 0.15L69.1 0.15Q68.75 0.15 68.52-0.18 68.3-0.5 68.3-0.85L68.3-0.85Q68.4-1.6 68.7-1.68 69-1.75 69.5-1.75L69.5-1.75Q70.9-1.75 71.4-2.23 71.9-2.7 71.97-3.5 72.05-4.3 72.05-5.15L72.05-5.15 72.05-16.6Q72.05-17.5 71.97-18.28 71.9-19.05 71.4-19.53 70.9-20 69.5-20L69.5-20Q69.05-20 68.67-20.13 68.3-20.25 68.3-21L68.3-21Q68.3-21.75 69.1-21.9L69.1-21.9Q71.4-22.25 72.62-22.6 73.85-22.95 74.5-23.2 75.15-23.45 75.65-23.5L75.65-23.5Q76.05-23.55 76.32-23.35 76.6-23.15 76.6-22.55L76.6-22.55 76.6-5.15Q76.6-4.3 76.67-3.5 76.75-2.7 77.27-2.23 77.8-1.75 79.2-1.75L79.2-1.75Q79.65-1.75 79.97-1.68 80.3-1.6 80.35-0.85L80.35-0.85Q80.35-0.5 80.15-0.18 79.95 0.15 79.55 0.15L79.55 0.15Q78.1 0.05 76.87 0.03 75.65 0 74.3 0L74.3 0Q72.95 0 71.75 0.03 70.55 0.05 69.1 0.15ZM74.05-29.05L74.05-29.05Q72.65-29.05 71.7-29.93 70.75-30.8 70.75-32.1L70.75-32.1Q70.75-33.25 71.9-34.15 73.05-35.05 74.5-35.05L74.5-35.05Q75.75-35.05 76.55-34.18 77.35-33.3 77.35-31.95L77.35-31.95Q77.35-30.75 76.4-29.9 75.45-29.05 74.05-29.05ZM94.04 0.6L94.04 0.6Q88.89 0.6 86.02-2.68 83.14-5.95 83.14-11.35L83.14-11.35Q83.29-14.8 84.87-17.45 86.44-20.1 89.07-21.63 91.69-23.15 94.89-23.25L94.89-23.25Q96.64-23.25 98.47-22.83 100.29-22.4 101.52-21.28 102.74-20.15 102.74-18.05L102.74-18.05Q102.74-16.6 101.84-15.38 100.94-14.15 99.34-14.15L99.34-14.15Q98.24-14.15 97.64-14.7 97.04-15.25 97.04-15.5L97.04-15.5Q97.04-15.6 97.47-15.93 97.89-16.25 98.29-16.82 98.69-17.4 98.69-18.25L98.69-18.25Q98.69-19.85 97.54-20.6 96.39-21.35 94.94-21.4L94.94-21.4Q92.74-21.4 91.42-20.5 90.09-19.6 89.39-18.13 88.69-16.65 88.47-14.9 88.24-13.15 88.24-11.5L88.24-11.5Q88.24-8.75 89.09-6.58 89.94-4.4 91.49-3.15 93.04-1.9 95.19-1.9L95.19-1.9Q97.39-1.9 98.89-2.85 100.39-3.8 101.64-5.65L101.64-5.65Q101.99-6.15 102.69-5.75L102.69-5.75Q103.04-5.55 103.19-5.2 103.34-4.85 103.09-4.5L103.09-4.5Q101.44-2.15 98.99-0.78 96.54 0.6 94.04 0.6ZM106.79 0.15L106.79 0.15Q106.39 0.15 106.19-0.18 105.99-0.5 105.99-0.85L105.99-0.85Q106.04-1.6 106.37-1.68 106.69-1.75 107.14-1.75L107.14-1.75Q108.54-1.75 109.07-2.23 109.59-2.7 109.67-3.5 109.74-4.3 109.74-5.15L109.74-5.15 109.74-29.5Q109.74-30.4 109.67-31.18 109.59-31.95 109.09-32.43 108.59-32.9 107.19-32.9L107.19-32.9Q106.74-32.9 106.37-33.02 105.99-33.15 105.99-33.9L105.99-33.9Q105.99-34.65 106.79-34.8L106.79-34.8Q109.09-35.15 110.32-35.5 111.54-35.85 112.19-36.1 112.84-36.35 113.34-36.4L113.34-36.4Q113.74-36.45 114.02-36.25 114.29-36.05 114.29-35.45L114.29-35.45 114.29-12.6Q116.49-13.05 117.89-14.45L117.89-14.45 122.09-18.75Q122.39-19.1 122.77-19.5 123.14-19.9 123.22-20.25 123.29-20.6 122.79-20.8 122.29-21 120.89-20.9L120.89-20.9Q120.34-21 120.29-21.8L120.29-21.8Q120.29-22.2 120.52-22.5 120.74-22.8 121.09-22.8L121.09-22.8Q122.24-22.75 123.87-22.7 125.49-22.65 126.59-22.65L126.59-22.65Q127.44-22.65 128.27-22.7 129.09-22.75 129.94-22.8L129.94-22.8Q130.34-22.8 130.54-22.5 130.74-22.2 130.74-21.8L130.74-21.8Q130.69-21.15 130.47-21.03 130.24-20.9 129.89-20.9L129.89-20.9Q127.94-20.9 126.74-20.2 125.54-19.5 124.04-17.95L124.04-17.95 119.84-13.65Q120.44-12.85 121.44-11.7 122.44-10.55 123.57-9.28 124.69-8 125.69-6.88 126.69-5.75 127.29-5.05L127.29-5.05Q128.74-3.5 129.72-2.68 130.69-1.85 132.14-1.75L132.14-1.75Q132.54-1.7 132.89-1.63 133.24-1.55 133.24-0.85L133.24-0.85Q133.24-0.5 133.07-0.18 132.89 0.15 132.44 0.15L132.44 0.15Q131.74 0.1 131.29 0.08 130.84 0.05 130.29 0.03 129.74 0 128.72 0 127.69 0 125.79 0L125.79 0Q124.04-1.9 121.77-4.55 119.49-7.2 117.24-9.8L117.24-9.8Q116.74-10.35 115.97-10.83 115.19-11.3 114.29-11.2L114.29-11.2 114.29-5.15Q114.29-4.3 114.37-3.5 114.44-2.7 114.97-2.23 115.49-1.75 116.84-1.75L116.84-1.75Q117.34-1.75 117.67-1.68 117.99-1.6 118.04-0.85L118.04-0.85Q118.04-0.5 117.84-0.18 117.64 0.15 117.24 0.15L117.24 0.15Q115.79 0.05 114.54 0.03 113.29 0 111.99 0L111.99 0Q110.64 0 109.44 0.03 108.24 0.05 106.79 0.15ZM146.44 1L146.44 1Q141.24 1 138.44-0.83 135.64-2.65 135.64-6.2L135.64-6.2Q135.64-8 136.86-9.18 138.09-10.35 140.04-10.35L140.04-10.35Q141.34-10.3 141.86-9.7 142.39-9.1 142.39-8.8L142.39-8.8Q142.39-8.7 141.94-8.47 141.49-8.25 141.04-7.68 140.59-7.1 140.59-5.9L140.59-5.9Q140.59-3.65 141.99-2.33 143.39-1 146.44-1L146.44-1Q148.59-1 150.11-1.83 151.64-2.65 152.44-3.98 153.24-5.3 153.24-6.7L153.24-6.7Q153.24-8.8 152.04-10.15 150.84-11.5 148.91-12.48 146.99-13.45 144.84-14.35 142.69-15.25 140.76-16.4 138.84-17.55 137.59-19.28 136.34-21 136.29-23.6L136.29-23.6Q136.24-26.75 137.64-28.73 139.04-30.7 141.54-31.63 144.04-32.55 147.09-32.55L147.09-32.55Q149.34-32.55 151.51-31.9 153.69-31.25 155.11-29.88 156.54-28.5 156.54-26.25L156.54-26.25Q156.54-24.45 155.31-23.28 154.09-22.1 152.14-22.1L152.14-22.1Q150.84-22.2 150.31-22.78 149.79-23.35 149.79-23.65L149.79-23.65Q149.79-23.8 150.39-24.03 150.99-24.25 151.59-24.83 152.19-25.4 152.19-26.55L152.19-26.55Q152.19-28.45 150.74-29.48 149.29-30.5 147.14-30.5L147.14-30.5Q143.89-30.5 142.41-28.98 140.94-27.45 140.94-25.55L140.94-25.55Q140.94-23.7 141.94-22.55 142.94-21.4 144.94-20.3L144.94-20.3Q147.19-19.1 149.49-18.07 151.79-17.05 153.76-15.8 155.74-14.55 156.94-12.68 158.14-10.8 158.14-7.85L158.14-7.85Q158.14-5.3 156.56-3.3 154.99-1.3 152.34-0.15 149.69 1 146.44 1ZM174.19 0.6L174.19 0.6Q170.34 0.6 167.71-1.05 165.09-2.7 163.79-5.45 162.49-8.2 162.49-11.45L162.49-11.45Q162.49-13.65 163.26-15.73 164.04-17.8 165.49-19.53 166.94-21.25 168.99-22.25 171.04-23.25 173.64-23.25L173.64-23.25Q178.24-23.25 180.56-20.88 182.89-18.5 183.24-14.85L183.24-14.85Q183.24-13.1 182.26-12.55 181.29-12 179.74-12L179.74-12 167.59-12Q167.59-9.1 168.39-6.83 169.19-4.55 170.91-3.23 172.64-1.9 175.49-1.9L175.49-1.9Q177.59-1.9 179.09-2.8 180.59-3.7 181.99-5.95L181.99-5.95Q182.39-6.45 183.09-6L183.09-6Q183.49-5.8 183.59-5.38 183.69-4.95 183.49-4.65L183.49-4.65Q181.94-2.2 179.59-0.8 177.24 0.6 174.19 0.6ZM167.59-13.9L167.59-13.9 175.74-13.9Q176.94-13.9 177.66-14.38 178.39-14.85 178.44-16L178.44-16Q178.44-18.15 177.26-19.83 176.09-21.5 173.64-21.5L173.64-21.5Q171.14-21.5 169.46-19.5 167.79-17.5 167.59-13.9ZM187.98 0.15L187.98 0.15Q187.63 0.15 187.41-0.18 187.18-0.5 187.18-0.85L187.18-0.85Q187.28-1.6 187.58-1.68 187.88-1.75 188.38-1.75L188.38-1.75Q189.78-1.75 190.28-2.23 190.78-2.7 190.86-3.5 190.93-4.3 190.93-5.15L190.93-5.15 190.93-16.6Q190.93-17.5 190.86-18.28 190.78-19.05 190.28-19.53 189.78-20 188.38-20L188.38-20Q187.93-20 187.56-20.13 187.18-20.25 187.18-21L187.18-21Q187.18-21.75 187.98-21.9L187.98-21.9Q190.28-22.25 191.51-22.6 192.73-22.95 193.36-23.2 193.98-23.45 194.48-23.5L194.48-23.5Q194.88-23.55 195.16-23.35 195.43-23.15 195.43-22.55L195.43-22.55 195.43-19.4 195.58-19.4Q196.58-20.35 197.63-21.23 198.68-22.1 200.11-22.68 201.53-23.25 203.63-23.25L203.63-23.25Q207.03-23.25 209.03-21.2 211.03-19.15 211.03-15.8L211.03-15.8 211.03-5.15Q211.03-4.3 211.11-3.5 211.18-2.7 211.71-2.23 212.23-1.75 213.63-1.75L213.63-1.75Q214.08-1.75 214.41-1.68 214.73-1.6 214.78-0.85L214.78-0.85Q214.78-0.5 214.58-0.18 214.38 0.15 213.98 0.15L213.98 0.15Q212.53 0.05 211.31 0.03 210.08 0 208.73 0L208.73 0Q207.38 0 206.18 0.03 204.98 0.05 203.53 0.15L203.53 0.15Q203.18 0.15 202.96-0.18 202.73-0.5 202.73-0.85L202.73-0.85Q202.78-1.6 203.11-1.68 203.43-1.75 203.88-1.75L203.88-1.75Q205.28-1.75 205.81-2.23 206.33-2.7 206.41-3.5 206.48-4.3 206.48-5.15L206.48-5.15 206.48-15.75Q206.48-17.4 205.76-18.45 205.03-19.5 203.93-20 202.83-20.5 201.68-20.5L201.68-20.5Q199.98-20.5 198.68-19.88 197.38-19.25 196.58-18.45 195.78-17.65 195.48-17.05L195.48-17.05 195.48-5.15Q195.48-4.3 195.56-3.5 195.63-2.7 196.16-2.23 196.68-1.75 198.08-1.75L198.08-1.75Q198.53-1.75 198.86-1.68 199.18-1.6 199.23-0.85L199.23-0.85Q199.23-0.5 199.03-0.18 198.83 0.15 198.43 0.15L198.43 0.15Q196.98 0.05 195.76 0.03 194.53 0 193.18 0L193.18 0Q191.83 0 190.63 0.03 189.43 0.05 187.98 0.15ZM227.83 0.6L227.83 0.6Q225.03 0.6 222.63-0.9 220.23-2.4 218.78-5.1 217.33-7.8 217.33-11.35L217.33-11.35Q217.33-14.45 218.81-17.18 220.28-19.9 222.91-21.58 225.53-23.25 228.88-23.25L228.88-23.25Q230.48-23.25 232.03-22.88 233.58-22.5 234.68-21.85L234.68-21.85 234.83-21.85 234.83-29.5Q234.83-30.4 234.76-31.18 234.68-31.95 234.18-32.43 233.68-32.9 232.28-32.9L232.28-32.9Q231.83-32.9 231.46-33.02 231.08-33.15 231.08-33.9L231.08-33.9Q231.08-34.65 231.88-34.8L231.88-34.8Q234.18-35.15 235.41-35.5 236.63-35.85 237.28-36.1 237.93-36.35 238.43-36.4L238.43-36.4Q238.83-36.45 239.11-36.25 239.38-36.05 239.38-35.45L239.38-35.45 239.38-4.6Q239.38-1.65 243.28-1.65L243.28-1.65Q243.83-1.65 243.98-1.38 244.13-1.1 244.13-0.85L244.13-0.85Q244.13-0.15 243.28 0L243.28 0 235.33 0.55Q234.98 0.55 234.93 0.25 234.88-0.05 234.88-0.45L234.88-0.45 234.88-2.45 234.73-2.45Q233.48-1.15 231.61-0.28 229.73 0.6 227.83 0.6ZM229.53-1.9L229.53-1.9Q231.43-1.9 232.68-2.68 233.93-3.45 234.83-4.4L234.83-4.4 234.83-17.6Q234.58-18.45 233.91-19.33 233.23-20.2 232.11-20.83 230.98-21.45 229.38-21.45L229.38-21.45Q226.48-21.45 224.48-18.73 222.48-16 222.48-11.1L222.48-11.1Q222.48-8.75 223.26-6.63 224.03-4.5 225.58-3.2 227.13-1.9 229.53-1.9Z" opacity="1" transform="matrix(1,0,0,1,0,0)" fill="#6575a8" class="wordmark-text-0" data-fill-palette-color="primary" id="text-0"></path></svg></g></svg></g></svg></g></svg></g><g transform="matrix(1,0,0,1,0,0.18982505894518908)"><svg viewBox="0 0 45.54733819003696 75.93002357807653" height="75.93002357807653" width="45.54733819003696"><g><svg xmlns="http://www.w3.org/2000/svg" xmlns:xlink="http://www.w3.org/1999/xlink" version="1.1" x="0" y="0" viewBox="30.82708351965865 18.038293690900208 38.34540223082252 63.923983512478" enable-background="new 0 0 100 100" xml:space="preserve" height="75.93002357807653" width="45.54733819003696" class="icon-icon-0" data-fill-palette-color="accent" id="icon-0"><g fill="#e3c4e5" data-fill-palette-color="accent"><path d="M43.798 18.06C43.547 18.117 43.296 18.314 43.212 18.569L31.937 50.339C31.77 50.82 32.188 51.415 32.691 51.415H41.091L30.877 80.892C30.738 81.232 30.905 81.657 31.184 81.855 31.491 82.025 31.91 81.997 32.161 81.742L68.998 41.336C69.417 40.883 69.026 39.977 68.412 39.977H53.956L63.333 19.165C63.557 18.684 63.109 18.033 62.579 18.061H43.966A0.17 0.17 0 0 0 43.798 18.06M44.496 19.645H61.352L52.003 40.457C51.808 40.938 52.198 41.561 52.729 41.561H66.599L33.584 77.777 42.961 50.877C43.128 50.396 42.71 49.829 42.208 49.802H33.808z" fill="#e3c4e5" data-fill-palette-color="accent"></path></g></svg></g></svg></g></svg></g><defs></defs></svg><rect width="395.52" height="62.389762617405616" fill="none" stroke="none" visibility="hidden"></rect></g></svg></g></svg>